<?xml version="1.0" standalone="no"?>
<!DOCTYPE svg PUBLIC "-//W3C//DTD SVG 20010904//EN"
 "http://www.w3.org/TR/2001/REC-SVG-20010904/DTD/svg10.dtd">
<svg version="1.0" xmlns="http://www.w3.org/2000/svg"
 width="935.000000pt" height="609.000000pt" viewBox="0 0 935.000000 609.000000"
 preserveAspectRatio="xMidYMid meet">

<g transform="translate(0.000000,609.000000) scale(0.100000,-0.100000)"
fill="#000000" stroke="none">
<path d="M4120 6020 c-23 -23 -23 -23 -20 -196 1 -73 -2 -134 -7 -137 -4 -3
-87 -2 -184 0 l-177 6 -16 86 c-8 47 -18 111 -22 141 -4 30 -13 63 -22 73 -20
22 -64 22 -85 -1 -21 -23 -22 -111 -2 -202 24 -110 40 -100 -160 -100 l-175 0
0 113 c0 119 -2 127 -37 146 -48 25 -113 -32 -93 -83 5 -15 10 -61 10 -103 l0
-76 -192 7 c-105 3 -194 9 -197 12 -3 3 -6 62 -6 131 0 119 -1 126 -24 144
-31 25 -47 24 -76 -6 -24 -23 -25 -30 -25 -148 l0 -124 -122 -6 c-102 -5 -142
-12 -237 -42 -101 -33 -119 -42 -161 -84 -76 -76 -85 -99 -83 -221 1 -111 14
-318 32 -535 10 -116 15 -138 47 -205 20 -41 42 -109 50 -150 17 -83 33 -479
34 -820 0 -145 6 -241 16 -295 34 -189 64 -491 64 -658 0 -130 -2 -146 -37
-265 -31 -106 -37 -142 -37 -222 -1 -90 2 -101 46 -213 43 -107 47 -123 42
-175 -9 -84 7 -129 72 -201 49 -53 73 -70 178 -121 137 -67 284 -120 431 -156
122 -29 193 -31 226 -5 35 27 349 41 1179 52 377 5 757 13 845 18 280 17 508
53 647 104 81 29 282 160 297 193 14 31 -1 71 -33 85 -28 13 -31 12 -172 -82
-104 -70 -173 -97 -309 -123 -124 -23 -331 -46 -430 -47 -50 0 -121 -5 -160
-10 -38 -6 -410 -15 -825 -19 -899 -11 -1211 -19 -1227 -32 -23 -18 -260 59
-420 138 -66 33 -105 59 -133 91 l-40 46 0 86 c0 80 -4 96 -45 199 -58 143
-59 184 -8 354 33 112 37 137 41 274 3 100 -1 194 -11 280 -9 71 -19 165 -22
209 -3 44 -13 109 -22 145 -10 46 -17 160 -24 390 -12 462 -26 757 -38 815
-12 60 -30 111 -65 185 -18 38 -26 72 -26 111 0 30 -7 107 -15 170 -9 63 -16
164 -15 224 0 61 -2 139 -6 175 -5 65 -5 65 33 106 31 34 53 47 122 68 83 26
303 52 336 40 24 -10 21 -98 -5 -124 -24 -24 -25 -48 -4 -78 22 -31 93 -31
130 1 25 22 27 27 25 111 l-2 88 173 -7 c95 -4 176 -9 181 -12 4 -2 7 -19 7
-38 0 -27 -5 -37 -27 -47 -50 -24 -41 -112 14 -137 38 -18 91 -13 113 9 17 17
20 33 20 120 l0 100 181 0 181 0 -5 -62 c-3 -35 -9 -79 -12 -99 -6 -31 -3 -41
25 -73 37 -41 69 -47 100 -16 18 18 20 33 20 135 l0 115 158 0 c192 0 206 -3
198 -41 -3 -15 -17 -39 -32 -54 -22 -22 -25 -31 -19 -63 14 -76 56 -125 107
-125 56 0 68 28 68 159 l0 114 206 0 206 0 -6 -43 c-12 -80 31 -132 88 -105
30 13 37 28 45 93 l6 50 75 3 c41 2 108 0 148 -3 l72 -7 0 -69 c0 -38 -4 -69
-8 -69 -5 0 -14 -11 -20 -25 -15 -32 -3 -64 38 -98 38 -32 73 -34 100 -7 18
18 20 33 20 145 l0 125 194 0 c197 0 329 -15 385 -45 15 -7 43 -31 64 -53 39
-40 39 -40 34 -108 -21 -284 -26 -321 -56 -412 -17 -51 -31 -112 -31 -137 0
-24 -12 -79 -26 -122 -32 -97 -44 -297 -24 -408 7 -38 16 -189 20 -335 6 -221
11 -281 30 -360 20 -88 31 -177 46 -375 8 -99 22 -125 69 -125 57 0 69 21 61
115 -17 222 -27 300 -50 414 -23 109 -26 148 -26 325 0 130 -5 233 -15 291 -8
50 -15 145 -15 212 0 102 4 135 24 195 13 40 26 102 30 138 4 36 18 99 31 140
13 41 29 103 34 137 5 35 19 75 31 91 20 28 21 31 6 67 -12 27 -16 71 -16 158
l0 121 -67 66 c-116 113 -179 130 -505 137 l-228 5 0 159 c0 146 -2 161 -20
179 -26 26 -62 25 -86 -1 -17 -18 -19 -40 -22 -180 l-3 -159 -148 0 -147 0
-18 116 c-14 86 -16 118 -7 127 33 33 -11 97 -66 97 -41 0 -73 -39 -73 -89 0
-20 7 -74 15 -121 25 -143 38 -130 -129 -130 -78 0 -171 3 -205 6 l-62 7 2
161 c1 154 0 161 -21 178 -29 23 -55 23 -80 -2z"/>
<path d="M3985 5078 c-253 -5 -592 -6 -753 -3 -293 5 -323 3 -344 -29 -14 -21
-8 -63 11 -80 18 -16 68 -17 708 -16 378 1 817 5 974 9 263 5 289 8 308 25 25
23 27 53 5 84 -15 22 -18 22 -232 20 -119 -1 -424 -5 -677 -10z"/>
<path d="M4905 4489 c-18 -6 -327 -14 -760 -20 -1063 -15 -1257 -19 -1283 -25
-48 -10 -46 -99 2 -109 61 -12 271 -14 506 -5 146 6 581 15 967 19 621 7 705
10 727 24 44 29 42 82 -3 107 -29 15 -122 21 -156 9z"/>
<path d="M8885 3918 c-433 -131 -549 -172 -583 -207 -32 -31 -33 -37 -27 -80
10 -72 10 -73 106 -161 74 -67 97 -96 119 -146 32 -70 59 -94 108 -94 37 0 50
6 142 65 36 23 123 62 195 87 356 126 365 131 365 177 0 14 -16 53 -36 86 -20
33 -61 107 -91 165 -61 120 -89 151 -136 149 -18 -1 -90 -19 -162 -41z m191
-180 c26 -51 55 -105 65 -119 l18 -26 -47 -15 c-184 -62 -380 -141 -426 -172
-30 -20 -57 -36 -60 -36 -3 0 -14 19 -25 43 -22 48 -52 81 -134 151 -31 27
-57 54 -57 60 1 12 235 91 464 156 76 22 141 42 144 45 9 9 11 7 58 -87z"/>
<path d="M4980 3599 c-52 -5 -567 -12 -1145 -17 -762 -6 -1056 -11 -1071 -20
-47 -25 -34 -104 18 -113 13 -3 466 -1 1008 2 911 7 1452 19 1491 34 46 18 42
97 -6 115 -29 11 -152 11 -295 -1z"/>
<path d="M8015 3560 c-33 -8 -64 -18 -70 -21 -5 -4 -80 -30 -165 -59 -85 -29
-229 -82 -320 -117 -236 -93 -266 -103 -655 -214 -667 -191 -1214 -360 -1312
-406 -56 -26 -71 -51 -59 -97 6 -24 57 -51 71 -38 4 4 -15 -22 -42 -58 -101
-135 -173 -293 -173 -381 0 -44 4 -55 33 -84 46 -46 89 -56 268 -62 160 -6
267 8 417 52 56 17 78 48 62 89 -8 22 -6 26 25 36 19 6 45 24 58 40 32 37 79
61 98 49 40 -25 99 3 99 48 0 18 9 23 53 32 28 6 149 38 267 71 118 33 307 80
420 105 242 54 731 174 880 216 58 16 163 39 233 50 234 36 267 49 267 103 0
18 6 26 21 28 12 2 31 15 41 29 17 23 18 31 8 68 -12 44 -38 73 -178 199 -105
94 -210 227 -210 265 1 33 -24 63 -55 69 -12 2 -49 -3 -82 -12z m97 -240 c70
-88 146 -166 261 -266 50 -43 61 -74 26 -74 -11 0 -28 -4 -37 -9 -9 -5 -80
-18 -157 -30 -77 -12 -212 -41 -300 -65 -183 -50 -606 -154 -900 -220 -110
-25 -290 -71 -399 -101 -206 -57 -292 -75 -362 -75 -22 0 -45 -5 -51 -11 -16
-16 -58 0 -164 61 -95 55 -244 116 -308 126 -22 4 -41 10 -41 14 0 13 523 174
1100 339 398 113 521 153 694 223 151 61 550 197 557 190 3 -4 40 -50 81 -102z"/>
<path d="M5272 3085 c-19 -24 -28 -25 -208 -40 -104 -8 -247 -22 -319 -30
-144 -17 -417 -39 -655 -55 -268 -17 -540 -39 -685 -55 -86 -9 -235 -15 -387
-15 -136 0 -258 -4 -272 -10 -55 -21 -54 -103 2 -117 36 -9 614 4 692 16 70
11 191 21 535 46 452 32 625 46 800 65 99 11 218 22 265 25 205 14 371 38 396
57 49 39 19 107 -57 128 -56 16 -86 12 -107 -15z"/>
<path d="M5088 2404 c-11 -10 -524 -33 -753 -34 -506 -1 -914 -20 -1369 -64
-124 -12 -142 -16 -158 -36 -24 -29 -24 -92 0 -113 23 -21 66 -22 86 -2 38 39
732 84 1281 85 171 0 443 7 605 15 430 22 450 26 450 86 0 45 -31 69 -88 69
-27 0 -51 -2 -54 -6z"/>
<path d="M5785 1174 c-67 -34 -135 -119 -154 -190 -5 -21 -15 -87 -21 -146
-12 -121 -33 -179 -80 -223 -29 -28 -36 -30 -103 -29 -40 1 -88 8 -107 16 -59
25 -179 128 -295 253 -212 228 -240 255 -268 255 -40 0 -77 -21 -93 -52 -19
-38 -12 -345 11 -463 20 -107 56 -256 65 -275 11 -22 58 -36 78 -24 40 26 44
49 37 274 -4 118 -10 234 -14 257 l-8 42 120 -125 c137 -142 251 -233 332
-263 82 -31 215 -32 270 -4 75 40 138 124 164 218 5 22 15 88 20 148 6 59 16
117 22 130 22 43 62 77 91 77 62 0 89 70 43 115 -28 29 -66 32 -110 9z"/>
<path d="M6931 923 c-17 -21 -47 -68 -66 -105 -20 -37 -39 -68 -43 -68 -36 -1
-223 -32 -244 -41 -31 -13 -43 -39 -34 -74 12 -49 56 -52 229 -19 26 5 27 4
27 -36 0 -54 22 -94 72 -130 59 -43 132 -61 248 -62 85 -1 105 3 146 23 53 27
68 54 51 89 -21 41 -39 45 -102 25 -44 -13 -74 -16 -126 -11 -122 11 -180 47
-160 98 9 23 17 25 265 51 141 15 263 30 270 33 8 3 19 18 26 34 14 34 1 67
-33 79 -13 5 -110 -1 -241 -16 -120 -13 -221 -22 -224 -19 -2 3 10 27 27 54
35 55 39 91 13 115 -31 28 -67 21 -101 -20z"/>
<path d="M599 845 c-33 -18 -74 -69 -183 -228 -48 -70 -148 -206 -221 -302
-73 -96 -136 -183 -140 -194 -14 -44 45 -93 86 -71 27 15 112 108 122 133 9
25 86 127 96 127 3 0 11 -10 16 -22 18 -39 38 -43 120 -24 105 25 238 35 450
35 l180 1 58 -69 c67 -78 97 -92 136 -63 19 14 27 30 29 60 3 35 -1 43 -25 59
-54 35 -127 120 -203 233 -84 125 -213 276 -254 297 -21 11 -31 11 -49 2 -60
-32 -52 -68 42 -171 67 -73 161 -197 161 -211 0 -2 -87 -7 -193 -11 -177 -6
-311 -21 -395 -45 l-33 -10 34 47 c18 26 73 105 122 175 68 99 93 128 109 126
43 -3 56 2 72 26 13 21 14 30 5 53 -22 54 -89 76 -142 47z"/>
<path d="M2420 780 c-43 -43 -11 -104 51 -98 77 7 69 117 -8 118 -13 0 -32 -9
-43 -20z"/>
<path d="M7563 725 c-42 -18 -62 -52 -69 -111 -12 -108 57 -161 222 -171 227
-14 417 64 401 164 -13 76 -52 94 -237 104 -80 5 -174 13 -210 18 -79 13 -68
13 -107 -4z m117 -141 c17 -17 3 -18 -34 -4 -32 12 -35 34 -3 25 12 -4 29 -13
37 -21z m163 -11 c-13 -2 -33 -2 -45 0 -13 2 -3 4 22 4 25 0 35 -2 23 -4z"/>
<path d="M2823 720 c-48 -11 -123 -59 -135 -85 -9 -19 -18 -24 -46 -23 -105 4
-88 -181 26 -284 48 -44 60 -46 96 -17 25 20 26 23 26 138 l0 117 29 17 c46
27 67 22 84 -20 8 -21 18 -58 22 -83 12 -83 24 -108 56 -119 41 -14 68 -2 194
86 103 72 149 96 159 86 3 -4 6 -37 6 -74 0 -102 25 -149 79 -149 41 0 65 31
57 72 -4 18 -11 76 -15 128 -4 52 -13 105 -20 117 -38 72 -155 53 -306 -51
-80 -55 -95 -59 -95 -27 0 57 -59 144 -112 166 -41 16 -56 17 -105 5z"/>
<path d="M5895 718 c-97 -35 -141 -95 -132 -176 12 -108 120 -162 326 -162 54
0 113 5 132 12 80 27 119 81 119 163 0 39 -5 52 -30 75 -17 16 -45 32 -62 35
-18 4 -39 17 -48 28 -11 13 -35 23 -71 28 -78 11 -199 9 -234 -3z m164 -139
c13 -16 33 -23 81 -28 74 -7 88 -25 33 -40 -47 -13 -91 -14 -168 -1 -79 13
-115 28 -115 50 0 24 36 39 98 39 43 1 57 -3 71 -20z"/>
<path d="M1755 671 c-74 -21 -121 -45 -158 -79 -16 -16 -41 -27 -60 -28 -44
-2 -70 -38 -64 -85 8 -64 69 -192 99 -208 25 -14 29 -14 55 5 27 20 28 26 31
112 3 91 3 92 37 118 42 32 113 54 175 54 38 0 52 -5 78 -31 39 -39 52 -82 52
-181 0 -98 15 -118 88 -118 75 0 105 47 64 101 -10 14 -24 58 -30 103 -31 206
-168 295 -367 237z"/>
<path d="M3941 664 c-89 -19 -166 -59 -230 -118 -62 -59 -90 -113 -91 -174 0
-88 48 -128 191 -158 57 -12 113 -15 249 -11 200 5 249 17 264 60 20 56 -25
88 -106 76 -80 -11 -340 -10 -395 1 -70 15 -79 23 -67 57 9 27 11 28 109 35
103 7 169 21 266 57 69 26 93 51 93 97 0 49 -28 72 -99 84 -76 13 -105 12
-184 -6z"/>
<path d="M2276 554 c-25 -24 -29 -58 -23 -171 5 -115 19 -143 67 -143 52 0 60
23 59 165 0 105 -3 133 -16 147 -20 22 -66 23 -87 2z"/>
</g>
</svg>
